<svg xmlns="http://www.w3.org/2000/svg" xmlns:xlink="http://www.w3.org/1999/xlink" width="286" zoomAndPan="magnify" viewBox="0 0 214.5 74.999997" height="100" preserveAspectRatio="xMidYMid meet" version="1.0"><defs><g/><clipPath id="fda5bcb576"><path d="M 27.5625 15.933594 L 44.132812 15.933594 L 44.132812 59.0625 L 27.5625 59.0625 Z M 27.5625 15.933594 " clip-rule="nonzero"/></clipPath><clipPath id="4413b0fef5"><path d="M 39.246094 17.542969 L 71.640625 17.542969 L 71.640625 58.96875 L 39.246094 58.96875 Z M 39.246094 17.542969 " clip-rule="nonzero"/></clipPath></defs><g clip-path="url(#fda5bcb576)"><path fill="#ffffff" d="M 36.554688 54.378906 C 37.628906 55.722656 38.320312 57.332031 38.765625 58.808594 C 38.917969 58.894531 39.074219 58.980469 39.226562 59.0625 C 38.960938 52.046875 36.746094 48.191406 36.746094 48.191406 C 39.183594 51.242188 40.460938 55.089844 41.125 58.136719 C 40.917969 47.339844 37.496094 41.390625 37.496094 41.390625 C 41.324219 46.183594 43.179688 52.328125 44.074219 56.890625 C 44.632812 30.554688 36.234375 15.9375 36.230469 15.933594 C 36.230469 15.933594 37.136719 18.609375 37.34375 21.296875 C 31.445312 25.25 27.5625 31.976562 27.5625 39.613281 C 27.5625 47.421875 31.625 54.285156 37.75 58.199219 C 37.320312 55.714844 36.554688 54.378906 36.554688 54.378906 " fill-opacity="1" fill-rule="nonzero"/></g><g clip-path="url(#4413b0fef5)"><path fill="#ffffff" d="M 49.601562 17.574219 C 45.867188 17.574219 42.351562 18.503906 39.269531 20.140625 C 44.707031 28.472656 47.875 37.996094 49.710938 45.976562 C 51.601562 39.007812 54.738281 31.097656 59.933594 24.597656 C 59.933594 24.597656 53.878906 35.125 53.519531 54.230469 C 54.753906 48.160156 57.242188 40.160156 62.253906 33.890625 C 62.253906 33.890625 57.609375 41.96875 57.378906 56.613281 C 58.234375 52.722656 59.871094 47.832031 62.972656 43.945312 C 62.972656 43.945312 59.910156 49.277344 59.765625 58.941406 C 60.269531 56.929688 61.152344 54.566406 62.683594 52.652344 C 62.683594 52.652344 61.511719 54.683594 61.074219 58.433594 C 67.410156 54.5625 71.640625 47.582031 71.640625 39.613281 C 71.640625 27.441406 61.773438 17.574219 49.601562 17.574219 " fill-opacity="1" fill-rule="nonzero"/></g><g fill="#ffffff" fill-opacity="1"><g transform="translate(83.169674, 36.548818)"><g><path d="M 0.6875 -7.359375 C 0.6875 -8.804688 1 -10.097656 1.625 -11.234375 C 2.257812 -12.367188 3.132812 -13.253906 4.25 -13.890625 C 5.375 -14.523438 6.644531 -14.84375 8.0625 -14.84375 C 9.8125 -14.84375 11.304688 -14.378906 12.546875 -13.453125 C 13.785156 -12.535156 14.613281 -11.285156 15.03125 -9.703125 L 11.09375 -9.703125 C 10.800781 -10.316406 10.382812 -10.78125 9.84375 -11.09375 C 9.3125 -11.414062 8.707031 -11.578125 8.03125 -11.578125 C 6.925781 -11.578125 6.03125 -11.191406 5.34375 -10.421875 C 4.664062 -9.660156 4.328125 -8.640625 4.328125 -7.359375 C 4.328125 -6.078125 4.664062 -5.050781 5.34375 -4.28125 C 6.03125 -3.519531 6.925781 -3.140625 8.03125 -3.140625 C 8.707031 -3.140625 9.3125 -3.296875 9.84375 -3.609375 C 10.382812 -3.929688 10.800781 -4.398438 11.09375 -5.015625 L 15.03125 -5.015625 C 14.613281 -3.429688 13.785156 -2.179688 12.546875 -1.265625 C 11.304688 -0.347656 9.8125 0.109375 8.0625 0.109375 C 6.644531 0.109375 5.375 -0.207031 4.25 -0.84375 C 3.132812 -1.476562 2.257812 -2.359375 1.625 -3.484375 C 1 -4.617188 0.6875 -5.910156 0.6875 -7.359375 Z M 0.6875 -7.359375 "/></g></g></g><g fill="#ffffff" fill-opacity="1"><g transform="translate(99.0947, 36.548818)"><g><path d="M 4.875 -2.765625 L 9.546875 -2.765625 L 9.546875 0 L 1.296875 0 L 1.296875 -14.671875 L 4.875 -14.671875 Z M 4.875 -2.765625 "/></g></g></g><g fill="#ffffff" fill-opacity="1"><g transform="translate(109.063515, 36.548818)"><g><path d="M 10.4375 -2.59375 L 4.953125 -2.59375 L 4.078125 0 L 0.328125 0 L 5.640625 -14.671875 L 9.78125 -14.671875 L 15.09375 0 L 11.3125 0 Z M 9.515625 -5.359375 L 7.6875 -10.71875 L 5.890625 -5.359375 Z M 9.515625 -5.359375 "/></g></g></g><g fill="#ffffff" fill-opacity="1"><g transform="translate(124.466066, 36.548818)"><g><path d="M 13.875 -14.671875 L 8.796875 -4.84375 L 8.796875 0 L 5.21875 0 L 5.21875 -4.84375 L 0.140625 -14.671875 L 4.203125 -14.671875 L 7.046875 -8.53125 L 9.875 -14.671875 Z M 13.875 -14.671875 "/></g></g></g><g fill="#ffffff" fill-opacity="1"><g transform="translate(138.489278, 36.548818)"><g/></g></g><g fill="#ffffff" fill-opacity="1"><g transform="translate(142.919857, 36.548818)"><g><path d="M 12.484375 -9.953125 C 12.484375 -9.097656 12.285156 -8.316406 11.890625 -7.609375 C 11.503906 -6.910156 10.90625 -6.34375 10.09375 -5.90625 C 9.289062 -5.476562 8.289062 -5.265625 7.09375 -5.265625 L 4.875 -5.265625 L 4.875 0 L 1.296875 0 L 1.296875 -14.671875 L 7.09375 -14.671875 C 8.257812 -14.671875 9.242188 -14.46875 10.046875 -14.0625 C 10.859375 -13.664062 11.46875 -13.109375 11.875 -12.390625 C 12.28125 -11.679688 12.484375 -10.867188 12.484375 -9.953125 Z M 6.8125 -8.109375 C 7.5 -8.109375 8.007812 -8.269531 8.34375 -8.59375 C 8.675781 -8.914062 8.84375 -9.367188 8.84375 -9.953125 C 8.84375 -10.535156 8.675781 -10.988281 8.34375 -11.3125 C 8.007812 -11.632812 7.5 -11.796875 6.8125 -11.796875 L 4.875 -11.796875 L 4.875 -8.109375 Z M 6.8125 -8.109375 "/></g></g></g><g fill="#ffffff" fill-opacity="1"><g transform="translate(155.960826, 36.548818)"><g><path d="M 8.234375 0.140625 C 6.859375 0.140625 5.59375 -0.175781 4.4375 -0.8125 C 3.289062 -1.457031 2.378906 -2.351562 1.703125 -3.5 C 1.023438 -4.644531 0.6875 -5.9375 0.6875 -7.375 C 0.6875 -8.8125 1.023438 -10.101562 1.703125 -11.25 C 2.378906 -12.394531 3.289062 -13.285156 4.4375 -13.921875 C 5.59375 -14.566406 6.859375 -14.890625 8.234375 -14.890625 C 9.617188 -14.890625 10.882812 -14.566406 12.03125 -13.921875 C 13.175781 -13.285156 14.082031 -12.394531 14.75 -11.25 C 15.414062 -10.101562 15.75 -8.8125 15.75 -7.375 C 15.75 -5.9375 15.410156 -4.644531 14.734375 -3.5 C 14.066406 -2.351562 13.160156 -1.457031 12.015625 -0.8125 C 10.878906 -0.175781 9.617188 0.140625 8.234375 0.140625 Z M 8.234375 -3.109375 C 9.410156 -3.109375 10.347656 -3.5 11.046875 -4.28125 C 11.753906 -5.0625 12.109375 -6.09375 12.109375 -7.375 C 12.109375 -8.675781 11.753906 -9.710938 11.046875 -10.484375 C 10.347656 -11.253906 9.410156 -11.640625 8.234375 -11.640625 C 7.046875 -11.640625 6.097656 -11.253906 5.390625 -10.484375 C 4.691406 -9.722656 4.34375 -8.6875 4.34375 -7.375 C 4.34375 -6.082031 4.691406 -5.046875 5.390625 -4.265625 C 6.097656 -3.492188 7.046875 -3.109375 8.234375 -3.109375 Z M 8.234375 -3.109375 "/></g></g></g><g fill="#ffffff" fill-opacity="1"><g transform="translate(172.387424, 36.548818)"><g><path d="M 11.859375 -14.671875 L 11.859375 -11.8125 L 7.96875 -11.8125 L 7.96875 0 L 4.390625 0 L 4.390625 -11.8125 L 0.5 -11.8125 L 0.5 -14.671875 Z M 11.859375 -14.671875 "/></g></g></g><g fill="#ffffff" fill-opacity="1"><g transform="translate(184.747553, 36.548818)"><g/></g></g><g fill="#ffffff" fill-opacity="1"><g transform="translate(83.180383, 54.453219)"><g><path d="M 6.875 -5.796875 C 7.28125 -5.734375 7.648438 -5.566406 7.984375 -5.296875 C 8.328125 -5.023438 8.597656 -4.691406 8.796875 -4.296875 C 9.003906 -3.898438 9.109375 -3.472656 9.109375 -3.015625 C 9.109375 -2.441406 8.960938 -1.925781 8.671875 -1.46875 C 8.378906 -1.019531 7.953125 -0.660156 7.390625 -0.390625 C 6.835938 -0.128906 6.1875 0 5.4375 0 L 1.25 0 L 1.25 -11.25 L 5.28125 -11.25 C 6.039062 -11.25 6.6875 -11.117188 7.21875 -10.859375 C 7.757812 -10.609375 8.164062 -10.269531 8.4375 -9.84375 C 8.707031 -9.414062 8.84375 -8.929688 8.84375 -8.390625 C 8.84375 -7.722656 8.660156 -7.171875 8.296875 -6.734375 C 7.941406 -6.296875 7.46875 -5.984375 6.875 -5.796875 Z M 2.71875 -6.390625 L 5.1875 -6.390625 C 5.875 -6.390625 6.40625 -6.550781 6.78125 -6.875 C 7.15625 -7.195312 7.34375 -7.644531 7.34375 -8.21875 C 7.34375 -8.789062 7.15625 -9.238281 6.78125 -9.5625 C 6.40625 -9.882812 5.863281 -10.046875 5.15625 -10.046875 L 2.71875 -10.046875 Z M 5.3125 -1.203125 C 6.039062 -1.203125 6.609375 -1.375 7.015625 -1.71875 C 7.429688 -2.070312 7.640625 -2.550781 7.640625 -3.15625 C 7.640625 -3.78125 7.421875 -4.273438 6.984375 -4.640625 C 6.554688 -5.003906 5.984375 -5.1875 5.265625 -5.1875 L 2.71875 -5.1875 L 2.71875 -1.203125 Z M 5.3125 -1.203125 "/></g></g></g><g fill="#ffffff" fill-opacity="1"><g transform="translate(93.066853, 54.453219)"><g><path d="M 6.34375 0.109375 C 5.300781 0.109375 4.347656 -0.132812 3.484375 -0.625 C 2.617188 -1.113281 1.9375 -1.796875 1.4375 -2.671875 C 0.9375 -3.546875 0.6875 -4.535156 0.6875 -5.640625 C 0.6875 -6.734375 0.9375 -7.71875 1.4375 -8.59375 C 1.9375 -9.46875 2.617188 -10.148438 3.484375 -10.640625 C 4.347656 -11.128906 5.300781 -11.375 6.34375 -11.375 C 7.394531 -11.375 8.347656 -11.128906 9.203125 -10.640625 C 10.066406 -10.148438 10.75 -9.46875 11.25 -8.59375 C 11.75 -7.726562 12 -6.742188 12 -5.640625 C 12 -4.523438 11.75 -3.53125 11.25 -2.65625 C 10.75 -1.789062 10.066406 -1.113281 9.203125 -0.625 C 8.347656 -0.132812 7.394531 0.109375 6.34375 0.109375 Z M 6.34375 -1.15625 C 7.125 -1.15625 7.828125 -1.335938 8.453125 -1.703125 C 9.085938 -2.078125 9.582031 -2.601562 9.9375 -3.28125 C 10.300781 -3.957031 10.484375 -4.742188 10.484375 -5.640625 C 10.484375 -6.535156 10.300781 -7.316406 9.9375 -7.984375 C 9.582031 -8.660156 9.09375 -9.179688 8.46875 -9.546875 C 7.84375 -9.921875 7.132812 -10.109375 6.34375 -10.109375 C 5.550781 -10.109375 4.84375 -9.921875 4.21875 -9.546875 C 3.59375 -9.179688 3.097656 -8.660156 2.734375 -7.984375 C 2.367188 -7.316406 2.1875 -6.535156 2.1875 -5.640625 C 2.1875 -4.742188 2.367188 -3.957031 2.734375 -3.28125 C 3.097656 -2.601562 3.59375 -2.078125 4.21875 -1.703125 C 4.851562 -1.335938 5.5625 -1.15625 6.34375 -1.15625 Z M 6.34375 -1.15625 "/></g></g></g><g fill="#ffffff" fill-opacity="1"><g transform="translate(105.743475, 54.453219)"><g><path d="M 8.171875 -11.25 L 8.171875 -10.0625 L 5.09375 -10.0625 L 5.09375 0 L 3.625 0 L 3.625 -10.0625 L 0.546875 -10.0625 L 0.546875 -11.25 Z M 8.171875 -11.25 "/></g></g></g><g fill="#ffffff" fill-opacity="1"><g transform="translate(114.468729, 54.453219)"><g><path d="M 7.890625 -2.5 L 2.984375 -2.5 L 2.078125 0 L 0.53125 0 L 4.59375 -11.1875 L 6.296875 -11.1875 L 10.34375 0 L 8.796875 0 Z M 7.46875 -3.703125 L 5.4375 -9.375 L 3.40625 -3.703125 Z M 7.46875 -3.703125 "/></g></g></g><g fill="#ffffff" fill-opacity="1"><g transform="translate(125.339012, 54.453219)"><g><path d="M 10.09375 0 L 8.625 0 L 2.71875 -8.953125 L 2.71875 0 L 1.25 0 L 1.25 -11.265625 L 2.71875 -11.265625 L 8.625 -2.328125 L 8.625 -11.265625 L 10.09375 -11.265625 Z M 10.09375 0 "/></g></g></g><g fill="#ffffff" fill-opacity="1"><g transform="translate(136.677006, 54.453219)"><g><path d="M 2.71875 -11.25 L 2.71875 0 L 1.25 0 L 1.25 -11.25 Z M 2.71875 -11.25 "/></g></g></g><g fill="#ffffff" fill-opacity="1"><g transform="translate(140.644501, 54.453219)"><g><path d="M 0.6875 -5.640625 C 0.6875 -6.734375 0.929688 -7.71875 1.421875 -8.59375 C 1.921875 -9.46875 2.597656 -10.148438 3.453125 -10.640625 C 4.316406 -11.140625 5.269531 -11.390625 6.3125 -11.390625 C 7.539062 -11.390625 8.609375 -11.09375 9.515625 -10.5 C 10.429688 -9.914062 11.101562 -9.078125 11.53125 -7.984375 L 9.765625 -7.984375 C 9.453125 -8.660156 9 -9.179688 8.40625 -9.546875 C 7.820312 -9.921875 7.125 -10.109375 6.3125 -10.109375 C 5.519531 -10.109375 4.8125 -9.921875 4.1875 -9.546875 C 3.570312 -9.179688 3.082031 -8.660156 2.71875 -7.984375 C 2.363281 -7.316406 2.1875 -6.535156 2.1875 -5.640625 C 2.1875 -4.742188 2.363281 -3.957031 2.71875 -3.28125 C 3.082031 -2.613281 3.570312 -2.09375 4.1875 -1.71875 C 4.8125 -1.351562 5.519531 -1.171875 6.3125 -1.171875 C 7.125 -1.171875 7.820312 -1.351562 8.40625 -1.71875 C 9 -2.082031 9.453125 -2.601562 9.765625 -3.28125 L 11.53125 -3.28125 C 11.101562 -2.195312 10.429688 -1.363281 9.515625 -0.78125 C 8.609375 -0.195312 7.539062 0.09375 6.3125 0.09375 C 5.269531 0.09375 4.316406 -0.148438 3.453125 -0.640625 C 2.597656 -1.128906 1.921875 -1.804688 1.421875 -2.671875 C 0.929688 -3.546875 0.6875 -4.535156 0.6875 -5.640625 Z M 0.6875 -5.640625 "/></g></g></g><g fill="#ffffff" fill-opacity="1"><g transform="translate(153.095332, 54.453219)"><g><path d="M 7.890625 -2.5 L 2.984375 -2.5 L 2.078125 0 L 0.53125 0 L 4.59375 -11.1875 L 6.296875 -11.1875 L 10.34375 0 L 8.796875 0 Z M 7.46875 -3.703125 L 5.4375 -9.375 L 3.40625 -3.703125 Z M 7.46875 -3.703125 "/></g></g></g><g fill="#ffffff" fill-opacity="1"><g transform="translate(163.965614, 54.453219)"><g><path d="M 2.71875 -1.1875 L 6.65625 -1.1875 L 6.65625 0 L 1.25 0 L 1.25 -11.25 L 2.71875 -11.25 Z M 2.71875 -1.1875 "/></g></g></g></svg>