<svg xmlns="http://www.w3.org/2000/svg" xmlns:xlink="http://www.w3.org/1999/xlink" width="500" zoomAndPan="magnify" viewBox="0 0 375 374.999991" height="500" preserveAspectRatio="xMidYMid meet" version="1.0"><defs><g/><clipPath id="6f319e557a"><path d="M 29.28125 137.640625 L 64.578125 137.640625 L 64.578125 229.507812 L 29.28125 229.507812 Z M 29.28125 137.640625 " clip-rule="nonzero"/></clipPath><clipPath id="51f154fa2c"><path d="M 54.167969 141.066406 L 123.03125 141.066406 L 123.03125 229.308594 L 54.167969 229.308594 Z M 54.167969 141.066406 " clip-rule="nonzero"/></clipPath></defs><g clip-path="url(#6f319e557a)"><path fill="#043d2d" d="M 48.4375 219.53125 C 50.726562 222.398438 52.199219 225.824219 53.148438 228.96875 C 53.472656 229.152344 53.800781 229.332031 54.128906 229.507812 C 53.5625 214.566406 48.84375 206.355469 48.84375 206.355469 C 54.035156 212.851562 56.753906 221.046875 58.171875 227.535156 C 57.730469 204.542969 50.445312 191.867188 50.445312 191.867188 C 58.597656 202.074219 62.546875 215.164062 64.449219 224.878906 C 65.644531 168.78125 47.75 137.648438 47.746094 137.636719 C 47.746094 137.640625 49.675781 143.335938 50.121094 149.058594 C 37.554688 157.484375 29.28125 171.816406 29.28125 188.082031 C 29.28125 204.71875 37.933594 219.332031 50.984375 227.671875 C 50.070312 222.375 48.4375 219.53125 48.4375 219.53125 " fill-opacity="1" fill-rule="nonzero"/></g><g clip-path="url(#51f154fa2c)"><path fill="#043d2d" d="M 76.230469 141.132812 C 68.273438 141.132812 60.78125 143.113281 54.21875 146.605469 C 65.804688 164.347656 72.550781 184.636719 76.460938 201.632812 C 80.488281 186.789062 87.171875 169.941406 98.234375 156.09375 C 98.234375 156.09375 85.339844 178.523438 84.574219 219.214844 C 87.199219 206.28125 92.507812 189.246094 103.179688 175.886719 C 103.179688 175.886719 93.285156 193.09375 92.792969 224.292969 C 94.617188 216 98.101562 205.582031 104.710938 197.308594 C 104.710938 197.308594 98.183594 208.664062 97.875 229.25 C 98.953125 224.964844 100.828125 219.933594 104.089844 215.855469 C 104.089844 215.855469 101.601562 220.183594 100.671875 228.171875 C 114.167969 219.925781 123.175781 205.054688 123.175781 188.082031 C 123.175781 162.152344 102.15625 141.132812 76.230469 141.132812 " fill-opacity="1" fill-rule="nonzero"/></g><g fill="#043d2d" fill-opacity="1"><g transform="translate(142.093385, 182.91455)"><g><path d="M 0.59375 -6.328125 C 0.59375 -7.578125 0.863281 -8.6875 1.40625 -9.65625 C 1.945312 -10.632812 2.695312 -11.394531 3.65625 -11.9375 C 4.625 -12.488281 5.71875 -12.765625 6.9375 -12.765625 C 8.4375 -12.765625 9.71875 -12.367188 10.78125 -11.578125 C 11.851562 -10.785156 12.570312 -9.707031 12.9375 -8.34375 L 9.546875 -8.34375 C 9.296875 -8.875 8.9375 -9.273438 8.46875 -9.546875 C 8.007812 -9.828125 7.488281 -9.96875 6.90625 -9.96875 C 5.957031 -9.96875 5.1875 -9.632812 4.59375 -8.96875 C 4.007812 -8.3125 3.71875 -7.429688 3.71875 -6.328125 C 3.71875 -5.222656 4.007812 -4.34375 4.59375 -3.6875 C 5.1875 -3.03125 5.957031 -2.703125 6.90625 -2.703125 C 7.488281 -2.703125 8.007812 -2.835938 8.46875 -3.109375 C 8.9375 -3.390625 9.296875 -3.789062 9.546875 -4.3125 L 12.9375 -4.3125 C 12.570312 -2.945312 11.851562 -1.867188 10.78125 -1.078125 C 9.71875 -0.296875 8.4375 0.09375 6.9375 0.09375 C 5.71875 0.09375 4.625 -0.175781 3.65625 -0.71875 C 2.695312 -1.269531 1.945312 -2.03125 1.40625 -3 C 0.863281 -3.96875 0.59375 -5.078125 0.59375 -6.328125 Z M 0.59375 -6.328125 "/></g></g></g><g fill="#043d2d" fill-opacity="1"><g transform="translate(155.796203, 182.91455)"><g><path d="M 4.1875 -2.375 L 8.21875 -2.375 L 8.21875 0 L 1.109375 0 L 1.109375 -12.625 L 4.1875 -12.625 Z M 4.1875 -2.375 "/></g></g></g><g fill="#043d2d" fill-opacity="1"><g transform="translate(164.373956, 182.91455)"><g><path d="M 8.96875 -2.234375 L 4.265625 -2.234375 L 3.5 0 L 0.28125 0 L 4.859375 -12.625 L 8.421875 -12.625 L 12.984375 0 L 9.734375 0 Z M 8.1875 -4.609375 L 6.625 -9.21875 L 5.078125 -4.609375 Z M 8.1875 -4.609375 "/></g></g></g><g fill="#043d2d" fill-opacity="1"><g transform="translate(177.62721, 182.91455)"><g><path d="M 11.9375 -12.625 L 7.578125 -4.171875 L 7.578125 0 L 4.5 0 L 4.5 -4.171875 L 0.125 -12.625 L 3.609375 -12.625 L 6.0625 -7.34375 L 8.484375 -12.625 Z M 11.9375 -12.625 "/></g></g></g><g fill="#043d2d" fill-opacity="1"><g transform="translate(189.693603, 182.91455)"><g/></g></g><g fill="#043d2d" fill-opacity="1"><g transform="translate(193.505936, 182.91455)"><g><path d="M 10.734375 -8.5625 C 10.734375 -7.832031 10.566406 -7.160156 10.234375 -6.546875 C 9.898438 -5.941406 9.382812 -5.453125 8.6875 -5.078125 C 7.988281 -4.710938 7.125 -4.53125 6.09375 -4.53125 L 4.1875 -4.53125 L 4.1875 0 L 1.109375 0 L 1.109375 -12.625 L 6.09375 -12.625 C 7.101562 -12.625 7.953125 -12.445312 8.640625 -12.09375 C 9.335938 -11.75 9.859375 -11.269531 10.203125 -10.65625 C 10.554688 -10.050781 10.734375 -9.351562 10.734375 -8.5625 Z M 5.859375 -6.984375 C 6.453125 -6.984375 6.890625 -7.117188 7.171875 -7.390625 C 7.460938 -7.671875 7.609375 -8.0625 7.609375 -8.5625 C 7.609375 -9.0625 7.460938 -9.445312 7.171875 -9.71875 C 6.890625 -10 6.453125 -10.140625 5.859375 -10.140625 L 4.1875 -10.140625 L 4.1875 -6.984375 Z M 5.859375 -6.984375 "/></g></g></g><g fill="#043d2d" fill-opacity="1"><g transform="translate(204.727142, 182.91455)"><g><path d="M 7.078125 0.125 C 5.898438 0.125 4.816406 -0.148438 3.828125 -0.703125 C 2.835938 -1.253906 2.050781 -2.023438 1.46875 -3.015625 C 0.882812 -4.003906 0.59375 -5.113281 0.59375 -6.34375 C 0.59375 -7.582031 0.882812 -8.691406 1.46875 -9.671875 C 2.050781 -10.660156 2.835938 -11.429688 3.828125 -11.984375 C 4.816406 -12.535156 5.898438 -12.8125 7.078125 -12.8125 C 8.265625 -12.8125 9.351562 -12.535156 10.34375 -11.984375 C 11.332031 -11.429688 12.113281 -10.660156 12.6875 -9.671875 C 13.257812 -8.691406 13.546875 -7.582031 13.546875 -6.34375 C 13.546875 -5.113281 13.253906 -4.003906 12.671875 -3.015625 C 12.097656 -2.023438 11.316406 -1.253906 10.328125 -0.703125 C 9.347656 -0.148438 8.265625 0.125 7.078125 0.125 Z M 7.078125 -2.671875 C 8.085938 -2.671875 8.894531 -3.003906 9.5 -3.671875 C 10.101562 -4.347656 10.40625 -5.238281 10.40625 -6.34375 C 10.40625 -7.457031 10.101562 -8.347656 9.5 -9.015625 C 8.894531 -9.679688 8.085938 -10.015625 7.078125 -10.015625 C 6.066406 -10.015625 5.253906 -9.679688 4.640625 -9.015625 C 4.035156 -8.359375 3.734375 -7.46875 3.734375 -6.34375 C 3.734375 -5.226562 4.035156 -4.335938 4.640625 -3.671875 C 5.253906 -3.003906 6.066406 -2.671875 7.078125 -2.671875 Z M 7.078125 -2.671875 "/></g></g></g><g fill="#043d2d" fill-opacity="1"><g transform="translate(218.861544, 182.91455)"><g><path d="M 10.203125 -12.625 L 10.203125 -10.15625 L 6.859375 -10.15625 L 6.859375 0 L 3.78125 0 L 3.78125 -10.15625 L 0.4375 -10.15625 L 0.4375 -12.625 Z M 10.203125 -12.625 "/></g></g></g><g fill="#043d2d" fill-opacity="1"><g transform="translate(229.489318, 182.91455)"><g/></g></g><g fill="#043d2d" fill-opacity="1"><g transform="translate(233.301652, 182.91455)"><g><path d="M 8.765625 -6.46875 C 9.492188 -6.3125 10.078125 -5.945312 10.515625 -5.375 C 10.960938 -4.8125 11.1875 -4.164062 11.1875 -3.4375 C 11.1875 -2.382812 10.816406 -1.546875 10.078125 -0.921875 C 9.335938 -0.304688 8.3125 0 7 0 L 1.109375 0 L 1.109375 -12.625 L 6.796875 -12.625 C 8.078125 -12.625 9.082031 -12.328125 9.8125 -11.734375 C 10.539062 -11.148438 10.90625 -10.359375 10.90625 -9.359375 C 10.90625 -8.609375 10.707031 -7.988281 10.3125 -7.5 C 9.925781 -7.007812 9.410156 -6.664062 8.765625 -6.46875 Z M 4.1875 -7.515625 L 6.203125 -7.515625 C 6.703125 -7.515625 7.085938 -7.625 7.359375 -7.84375 C 7.628906 -8.070312 7.765625 -8.398438 7.765625 -8.828125 C 7.765625 -9.265625 7.628906 -9.59375 7.359375 -9.8125 C 7.085938 -10.039062 6.703125 -10.15625 6.203125 -10.15625 L 4.1875 -10.15625 Z M 6.453125 -2.484375 C 6.972656 -2.484375 7.375 -2.597656 7.65625 -2.828125 C 7.9375 -3.066406 8.078125 -3.40625 8.078125 -3.84375 C 8.078125 -4.289062 7.925781 -4.640625 7.625 -4.890625 C 7.332031 -5.140625 6.929688 -5.265625 6.421875 -5.265625 L 4.1875 -5.265625 L 4.1875 -2.484375 Z M 6.453125 -2.484375 "/></g></g></g><g fill="#043d2d" fill-opacity="1"><g transform="translate(245.152256, 182.91455)"><g><path d="M 7.078125 0.125 C 5.898438 0.125 4.816406 -0.148438 3.828125 -0.703125 C 2.835938 -1.253906 2.050781 -2.023438 1.46875 -3.015625 C 0.882812 -4.003906 0.59375 -5.113281 0.59375 -6.34375 C 0.59375 -7.582031 0.882812 -8.691406 1.46875 -9.671875 C 2.050781 -10.660156 2.835938 -11.429688 3.828125 -11.984375 C 4.816406 -12.535156 5.898438 -12.8125 7.078125 -12.8125 C 8.265625 -12.8125 9.351562 -12.535156 10.34375 -11.984375 C 11.332031 -11.429688 12.113281 -10.660156 12.6875 -9.671875 C 13.257812 -8.691406 13.546875 -7.582031 13.546875 -6.34375 C 13.546875 -5.113281 13.253906 -4.003906 12.671875 -3.015625 C 12.097656 -2.023438 11.316406 -1.253906 10.328125 -0.703125 C 9.347656 -0.148438 8.265625 0.125 7.078125 0.125 Z M 7.078125 -2.671875 C 8.085938 -2.671875 8.894531 -3.003906 9.5 -3.671875 C 10.101562 -4.347656 10.40625 -5.238281 10.40625 -6.34375 C 10.40625 -7.457031 10.101562 -8.347656 9.5 -9.015625 C 8.894531 -9.679688 8.085938 -10.015625 7.078125 -10.015625 C 6.066406 -10.015625 5.253906 -9.679688 4.640625 -9.015625 C 4.035156 -8.359375 3.734375 -7.46875 3.734375 -6.34375 C 3.734375 -5.226562 4.035156 -4.335938 4.640625 -3.671875 C 5.253906 -3.003906 6.066406 -2.671875 7.078125 -2.671875 Z M 7.078125 -2.671875 "/></g></g></g><g fill="#043d2d" fill-opacity="1"><g transform="translate(259.286658, 182.91455)"><g><path d="M 10.203125 -12.625 L 10.203125 -10.15625 L 6.859375 -10.15625 L 6.859375 0 L 3.78125 0 L 3.78125 -10.15625 L 0.4375 -10.15625 L 0.4375 -12.625 Z M 10.203125 -12.625 "/></g></g></g><g fill="#043d2d" fill-opacity="1"><g transform="translate(269.914433, 182.91455)"><g><path d="M 8.96875 -2.234375 L 4.265625 -2.234375 L 3.5 0 L 0.28125 0 L 4.859375 -12.625 L 8.421875 -12.625 L 12.984375 0 L 9.734375 0 Z M 8.1875 -4.609375 L 6.625 -9.21875 L 5.078125 -4.609375 Z M 8.1875 -4.609375 "/></g></g></g><g fill="#043d2d" fill-opacity="1"><g transform="translate(283.167694, 182.91455)"><g><path d="M 12.40625 0 L 9.328125 0 L 4.1875 -7.78125 L 4.1875 0 L 1.109375 0 L 1.109375 -12.625 L 4.1875 -12.625 L 9.328125 -4.796875 L 9.328125 -12.625 L 12.40625 -12.625 Z M 12.40625 0 "/></g></g></g><g fill="#043d2d" fill-opacity="1"><g transform="translate(296.690693, 182.91455)"><g><path d="M 4.1875 -12.625 L 4.1875 0 L 1.109375 0 L 1.109375 -12.625 Z M 4.1875 -12.625 "/></g></g></g><g fill="#043d2d" fill-opacity="1"><g transform="translate(301.995586, 182.91455)"><g><path d="M 0.59375 -6.328125 C 0.59375 -7.578125 0.863281 -8.6875 1.40625 -9.65625 C 1.945312 -10.632812 2.695312 -11.394531 3.65625 -11.9375 C 4.625 -12.488281 5.71875 -12.765625 6.9375 -12.765625 C 8.4375 -12.765625 9.71875 -12.367188 10.78125 -11.578125 C 11.851562 -10.785156 12.570312 -9.707031 12.9375 -8.34375 L 9.546875 -8.34375 C 9.296875 -8.875 8.9375 -9.273438 8.46875 -9.546875 C 8.007812 -9.828125 7.488281 -9.96875 6.90625 -9.96875 C 5.957031 -9.96875 5.1875 -9.632812 4.59375 -8.96875 C 4.007812 -8.3125 3.71875 -7.429688 3.71875 -6.328125 C 3.71875 -5.222656 4.007812 -4.34375 4.59375 -3.6875 C 5.1875 -3.03125 5.957031 -2.703125 6.90625 -2.703125 C 7.488281 -2.703125 8.007812 -2.835938 8.46875 -3.109375 C 8.9375 -3.390625 9.296875 -3.789062 9.546875 -4.3125 L 12.9375 -4.3125 C 12.570312 -2.945312 11.851562 -1.867188 10.78125 -1.078125 C 9.71875 -0.296875 8.4375 0.09375 6.9375 0.09375 C 5.71875 0.09375 4.625 -0.175781 3.65625 -0.71875 C 2.695312 -1.269531 1.945312 -2.03125 1.40625 -3 C 0.863281 -3.96875 0.59375 -5.078125 0.59375 -6.328125 Z M 0.59375 -6.328125 "/></g></g></g><g fill="#043d2d" fill-opacity="1"><g transform="translate(315.698405, 182.91455)"><g><path d="M 8.96875 -2.234375 L 4.265625 -2.234375 L 3.5 0 L 0.28125 0 L 4.859375 -12.625 L 8.421875 -12.625 L 12.984375 0 L 9.734375 0 Z M 8.1875 -4.609375 L 6.625 -9.21875 L 5.078125 -4.609375 Z M 8.1875 -4.609375 "/></g></g></g><g fill="#043d2d" fill-opacity="1"><g transform="translate(328.951659, 182.91455)"><g><path d="M 4.1875 -2.375 L 8.21875 -2.375 L 8.21875 0 L 1.109375 0 L 1.109375 -12.625 L 4.1875 -12.625 Z M 4.1875 -2.375 "/></g></g></g><g fill="#043d2d" fill-opacity="1"><g transform="translate(180.558428, 198.013412)"><g><path d="M 5.3125 0 L 3.1875 -3.46875 L 1.1875 -3.46875 L 1.1875 0 L 0.96875 0 L 0.96875 -7.96875 L 2.953125 -7.96875 C 3.828125 -7.96875 4.476562 -7.765625 4.90625 -7.359375 C 5.332031 -6.960938 5.546875 -6.414062 5.546875 -5.71875 C 5.546875 -5.082031 5.363281 -4.570312 5 -4.1875 C 4.632812 -3.800781 4.117188 -3.570312 3.453125 -3.5 L 5.59375 0 Z M 2.96875 -3.6875 C 3.75 -3.6875 4.332031 -3.867188 4.71875 -4.234375 C 5.113281 -4.609375 5.3125 -5.101562 5.3125 -5.71875 C 5.3125 -7.0625 4.523438 -7.734375 2.953125 -7.734375 L 1.1875 -7.734375 L 1.1875 -3.6875 Z M 2.96875 -3.6875 "/></g></g></g><g fill="#043d2d" fill-opacity="1"><g transform="translate(186.964131, 198.013412)"><g><path d="M 3.671875 0.078125 C 3.097656 0.078125 2.582031 -0.046875 2.125 -0.296875 C 1.675781 -0.546875 1.320312 -0.90625 1.0625 -1.375 C 0.800781 -1.851562 0.671875 -2.410156 0.671875 -3.046875 C 0.671875 -3.691406 0.800781 -4.25 1.0625 -4.71875 C 1.320312 -5.195312 1.675781 -5.5625 2.125 -5.8125 C 2.582031 -6.0625 3.097656 -6.1875 3.671875 -6.1875 C 4.234375 -6.1875 4.738281 -6.0625 5.1875 -5.8125 C 5.644531 -5.5625 6 -5.195312 6.25 -4.71875 C 6.507812 -4.25 6.640625 -3.691406 6.640625 -3.046875 C 6.640625 -2.410156 6.507812 -1.851562 6.25 -1.375 C 6 -0.90625 5.644531 -0.546875 5.1875 -0.296875 C 4.738281 -0.046875 4.234375 0.078125 3.671875 0.078125 Z M 3.671875 -0.125 C 4.160156 -0.125 4.609375 -0.226562 5.015625 -0.4375 C 5.429688 -0.65625 5.769531 -0.984375 6.03125 -1.421875 C 6.289062 -1.859375 6.421875 -2.398438 6.421875 -3.046875 C 6.421875 -3.703125 6.289062 -4.25 6.03125 -4.6875 C 5.769531 -5.125 5.429688 -5.445312 5.015625 -5.65625 C 4.609375 -5.875 4.160156 -5.984375 3.671875 -5.984375 C 3.179688 -5.984375 2.722656 -5.875 2.296875 -5.65625 C 1.878906 -5.445312 1.539062 -5.117188 1.28125 -4.671875 C 1.03125 -4.234375 0.90625 -3.691406 0.90625 -3.046875 C 0.90625 -2.410156 1.03125 -1.867188 1.28125 -1.421875 C 1.539062 -0.984375 1.878906 -0.65625 2.296875 -0.4375 C 2.722656 -0.226562 3.179688 -0.125 3.671875 -0.125 Z M 3.671875 -0.125 "/></g></g></g><g fill="#043d2d" fill-opacity="1"><g transform="translate(194.637368, 198.013412)"><g><path d="M 3.671875 0.078125 C 3.097656 0.078125 2.582031 -0.046875 2.125 -0.296875 C 1.675781 -0.546875 1.320312 -0.90625 1.0625 -1.375 C 0.800781 -1.851562 0.671875 -2.410156 0.671875 -3.046875 C 0.671875 -3.691406 0.800781 -4.25 1.0625 -4.71875 C 1.320312 -5.195312 1.675781 -5.5625 2.125 -5.8125 C 2.582031 -6.0625 3.097656 -6.1875 3.671875 -6.1875 C 4.234375 -6.1875 4.738281 -6.0625 5.1875 -5.8125 C 5.644531 -5.5625 6 -5.195312 6.25 -4.71875 C 6.507812 -4.25 6.640625 -3.691406 6.640625 -3.046875 C 6.640625 -2.410156 6.507812 -1.851562 6.25 -1.375 C 6 -0.90625 5.644531 -0.546875 5.1875 -0.296875 C 4.738281 -0.046875 4.234375 0.078125 3.671875 0.078125 Z M 3.671875 -0.125 C 4.160156 -0.125 4.609375 -0.226562 5.015625 -0.4375 C 5.429688 -0.65625 5.769531 -0.984375 6.03125 -1.421875 C 6.289062 -1.859375 6.421875 -2.398438 6.421875 -3.046875 C 6.421875 -3.703125 6.289062 -4.25 6.03125 -4.6875 C 5.769531 -5.125 5.429688 -5.445312 5.015625 -5.65625 C 4.609375 -5.875 4.160156 -5.984375 3.671875 -5.984375 C 3.179688 -5.984375 2.722656 -5.875 2.296875 -5.65625 C 1.878906 -5.445312 1.539062 -5.117188 1.28125 -4.671875 C 1.03125 -4.234375 0.90625 -3.691406 0.90625 -3.046875 C 0.90625 -2.410156 1.03125 -1.867188 1.28125 -1.421875 C 1.539062 -0.984375 1.878906 -0.65625 2.296875 -0.4375 C 2.722656 -0.226562 3.179688 -0.125 3.671875 -0.125 Z M 3.671875 -0.125 "/></g></g></g><g fill="#043d2d" fill-opacity="1"><g transform="translate(202.310605, 198.013412)"><g><path d="M 1.453125 -5.875 L 1.453125 -1.609375 C 1.453125 -1.234375 1.492188 -0.945312 1.578125 -0.75 C 1.660156 -0.5625 1.789062 -0.425781 1.96875 -0.34375 C 2.144531 -0.257812 2.394531 -0.21875 2.71875 -0.21875 L 3.375 -0.21875 L 3.375 0 L 2.703125 0 C 2.171875 0 1.789062 -0.117188 1.5625 -0.359375 C 1.332031 -0.597656 1.21875 -1.015625 1.21875 -1.609375 L 1.21875 -5.875 L 0.21875 -5.875 L 0.21875 -6.109375 L 1.21875 -6.109375 L 1.21875 -7.671875 L 1.453125 -7.671875 L 1.453125 -6.109375 L 3.375 -6.109375 L 3.375 -5.875 Z M 1.453125 -5.875 "/></g></g></g><g fill="#043d2d" fill-opacity="1"><g transform="translate(206.486818, 198.013412)"><g><path d="M 3.625 -0.125 C 4.3125 -0.125 4.882812 -0.296875 5.34375 -0.640625 C 5.8125 -0.992188 6.097656 -1.46875 6.203125 -2.0625 L 6.421875 -2.0625 C 6.316406 -1.425781 6.015625 -0.910156 5.515625 -0.515625 C 5.023438 -0.117188 4.394531 0.078125 3.625 0.078125 C 3.050781 0.078125 2.539062 -0.046875 2.09375 -0.296875 C 1.65625 -0.546875 1.304688 -0.90625 1.046875 -1.375 C 0.796875 -1.851562 0.671875 -2.410156 0.671875 -3.046875 C 0.671875 -3.691406 0.796875 -4.25 1.046875 -4.71875 C 1.304688 -5.195312 1.65625 -5.5625 2.09375 -5.8125 C 2.539062 -6.0625 3.050781 -6.1875 3.625 -6.1875 C 4.21875 -6.1875 4.722656 -6.0625 5.140625 -5.8125 C 5.566406 -5.5625 5.882812 -5.234375 6.09375 -4.828125 C 6.3125 -4.429688 6.421875 -4.007812 6.421875 -3.5625 C 6.421875 -3.289062 6.421875 -3.085938 6.421875 -2.953125 L 0.90625 -2.953125 C 0.914062 -2.328125 1.046875 -1.800781 1.296875 -1.375 C 1.546875 -0.957031 1.875 -0.644531 2.28125 -0.4375 C 2.6875 -0.226562 3.132812 -0.125 3.625 -0.125 Z M 3.625 -5.984375 C 3.132812 -5.984375 2.6875 -5.878906 2.28125 -5.671875 C 1.875 -5.460938 1.546875 -5.144531 1.296875 -4.71875 C 1.046875 -4.300781 0.914062 -3.78125 0.90625 -3.15625 L 6.21875 -3.15625 C 6.257812 -3.78125 6.160156 -4.300781 5.921875 -4.71875 C 5.679688 -5.144531 5.351562 -5.460938 4.9375 -5.671875 C 4.53125 -5.878906 4.09375 -5.984375 3.625 -5.984375 Z M 3.625 -5.984375 "/></g></g></g><g fill="#043d2d" fill-opacity="1"><g transform="translate(213.945019, 198.013412)"><g><path d="M 0.671875 -3.046875 C 0.671875 -3.691406 0.796875 -4.25 1.046875 -4.71875 C 1.296875 -5.195312 1.644531 -5.5625 2.09375 -5.8125 C 2.550781 -6.0625 3.070312 -6.1875 3.65625 -6.1875 C 4.351562 -6.1875 4.945312 -6.003906 5.4375 -5.640625 C 5.925781 -5.273438 6.253906 -4.804688 6.421875 -4.234375 L 6.421875 -8.375 L 6.625 -8.375 L 6.625 0 L 6.421875 0 L 6.421875 -1.875 C 6.253906 -1.300781 5.925781 -0.832031 5.4375 -0.46875 C 4.945312 -0.101562 4.351562 0.078125 3.65625 0.078125 C 3.070312 0.078125 2.550781 -0.046875 2.09375 -0.296875 C 1.644531 -0.546875 1.296875 -0.90625 1.046875 -1.375 C 0.796875 -1.851562 0.671875 -2.410156 0.671875 -3.046875 Z M 6.421875 -3.046875 C 6.421875 -3.628906 6.300781 -4.140625 6.0625 -4.578125 C 5.820312 -5.023438 5.492188 -5.367188 5.078125 -5.609375 C 4.660156 -5.859375 4.1875 -5.984375 3.65625 -5.984375 C 3.09375 -5.984375 2.601562 -5.863281 2.1875 -5.625 C 1.78125 -5.394531 1.460938 -5.054688 1.234375 -4.609375 C 1.015625 -4.171875 0.90625 -3.648438 0.90625 -3.046875 C 0.90625 -2.453125 1.015625 -1.929688 1.234375 -1.484375 C 1.460938 -1.046875 1.78125 -0.707031 2.1875 -0.46875 C 2.601562 -0.238281 3.09375 -0.125 3.65625 -0.125 C 4.1875 -0.125 4.660156 -0.242188 5.078125 -0.484375 C 5.492188 -0.734375 5.820312 -1.078125 6.0625 -1.515625 C 6.300781 -1.960938 6.421875 -2.472656 6.421875 -3.046875 Z M 6.421875 -3.046875 "/></g></g></g><g fill="#043d2d" fill-opacity="1"><g transform="translate(221.889866, 198.013412)"><g/></g></g><g fill="#043d2d" fill-opacity="1"><g transform="translate(225.522853, 198.013412)"><g><path d="M 1.1875 -7.96875 L 1.1875 0 L 0.96875 0 L 0.96875 -7.96875 Z M 1.1875 -7.96875 "/></g></g></g><g fill="#043d2d" fill-opacity="1"><g transform="translate(228.024116, 198.013412)"><g><path d="M 3.59375 -6.25 C 4.300781 -6.25 4.882812 -6.023438 5.34375 -5.578125 C 5.8125 -5.128906 6.046875 -4.457031 6.046875 -3.5625 L 6.046875 0 L 5.828125 0 L 5.828125 -3.59375 C 5.828125 -4.382812 5.625 -4.988281 5.21875 -5.40625 C 4.820312 -5.832031 4.28125 -6.046875 3.59375 -6.046875 C 2.863281 -6.046875 2.28125 -5.804688 1.84375 -5.328125 C 1.40625 -4.859375 1.1875 -4.164062 1.1875 -3.25 L 1.1875 0 L 0.96875 0 L 0.96875 -6.109375 L 1.1875 -6.109375 L 1.1875 -4.5 C 1.332031 -5.0625 1.617188 -5.492188 2.046875 -5.796875 C 2.472656 -6.097656 2.988281 -6.25 3.59375 -6.25 Z M 3.59375 -6.25 "/></g></g></g><g fill="#043d2d" fill-opacity="1"><g transform="translate(235.323878, 198.013412)"><g/></g></g><g fill="#043d2d" fill-opacity="1"><g transform="translate(238.956864, 198.013412)"><g><path d="M 1.1875 -7.765625 L 1.1875 -4.078125 L 4.515625 -4.078125 L 4.515625 -3.875 L 1.1875 -3.875 L 1.1875 -0.203125 L 4.859375 -0.203125 L 4.859375 0 L 0.96875 0 L 0.96875 -7.96875 L 4.859375 -7.96875 L 4.859375 -7.765625 Z M 1.1875 -7.765625 "/></g></g></g><g fill="#043d2d" fill-opacity="1"><g transform="translate(244.728807, 198.013412)"><g><path d="M 4.203125 0 L 2.34375 -2.90625 L 0.484375 0 L 0.234375 0 L 2.203125 -3.109375 L 0.265625 -6.109375 L 0.53125 -6.109375 L 2.359375 -3.265625 L 4.1875 -6.109375 L 4.421875 -6.109375 L 2.484375 -3.0625 L 4.46875 0 Z M 4.203125 0 "/></g></g></g><g fill="#043d2d" fill-opacity="1"><g transform="translate(249.787767, 198.013412)"><g><path d="M 0.671875 -3.046875 C 0.671875 -3.691406 0.796875 -4.25 1.046875 -4.71875 C 1.304688 -5.195312 1.65625 -5.5625 2.09375 -5.8125 C 2.539062 -6.0625 3.050781 -6.1875 3.625 -6.1875 C 4.394531 -6.1875 5.023438 -5.988281 5.515625 -5.59375 C 6.015625 -5.195312 6.316406 -4.675781 6.421875 -4.03125 L 6.203125 -4.03125 C 6.097656 -4.632812 5.8125 -5.109375 5.34375 -5.453125 C 4.882812 -5.804688 4.3125 -5.984375 3.625 -5.984375 C 3.132812 -5.984375 2.679688 -5.875 2.265625 -5.65625 C 1.859375 -5.445312 1.53125 -5.125 1.28125 -4.6875 C 1.03125 -4.25 0.90625 -3.703125 0.90625 -3.046875 C 0.90625 -2.398438 1.03125 -1.859375 1.28125 -1.421875 C 1.53125 -0.984375 1.859375 -0.65625 2.265625 -0.4375 C 2.679688 -0.226562 3.132812 -0.125 3.625 -0.125 C 4.3125 -0.125 4.882812 -0.296875 5.34375 -0.640625 C 5.8125 -0.992188 6.097656 -1.46875 6.203125 -2.0625 L 6.421875 -2.0625 C 6.316406 -1.425781 6.015625 -0.910156 5.515625 -0.515625 C 5.023438 -0.117188 4.394531 0.078125 3.625 0.078125 C 3.050781 0.078125 2.539062 -0.046875 2.09375 -0.296875 C 1.65625 -0.546875 1.304688 -0.90625 1.046875 -1.375 C 0.796875 -1.851562 0.671875 -2.410156 0.671875 -3.046875 Z M 0.671875 -3.046875 "/></g></g></g><g fill="#043d2d" fill-opacity="1"><g transform="translate(257.245968, 198.013412)"><g><path d="M 3.625 -0.125 C 4.3125 -0.125 4.882812 -0.296875 5.34375 -0.640625 C 5.8125 -0.992188 6.097656 -1.46875 6.203125 -2.0625 L 6.421875 -2.0625 C 6.316406 -1.425781 6.015625 -0.910156 5.515625 -0.515625 C 5.023438 -0.117188 4.394531 0.078125 3.625 0.078125 C 3.050781 0.078125 2.539062 -0.046875 2.09375 -0.296875 C 1.65625 -0.546875 1.304688 -0.90625 1.046875 -1.375 C 0.796875 -1.851562 0.671875 -2.410156 0.671875 -3.046875 C 0.671875 -3.691406 0.796875 -4.25 1.046875 -4.71875 C 1.304688 -5.195312 1.65625 -5.5625 2.09375 -5.8125 C 2.539062 -6.0625 3.050781 -6.1875 3.625 -6.1875 C 4.21875 -6.1875 4.722656 -6.0625 5.140625 -5.8125 C 5.566406 -5.5625 5.882812 -5.234375 6.09375 -4.828125 C 6.3125 -4.429688 6.421875 -4.007812 6.421875 -3.5625 C 6.421875 -3.289062 6.421875 -3.085938 6.421875 -2.953125 L 0.90625 -2.953125 C 0.914062 -2.328125 1.046875 -1.800781 1.296875 -1.375 C 1.546875 -0.957031 1.875 -0.644531 2.28125 -0.4375 C 2.6875 -0.226562 3.132812 -0.125 3.625 -0.125 Z M 3.625 -5.984375 C 3.132812 -5.984375 2.6875 -5.878906 2.28125 -5.671875 C 1.875 -5.460938 1.546875 -5.144531 1.296875 -4.71875 C 1.046875 -4.300781 0.914062 -3.78125 0.90625 -3.15625 L 6.21875 -3.15625 C 6.257812 -3.78125 6.160156 -4.300781 5.921875 -4.71875 C 5.679688 -5.144531 5.351562 -5.460938 4.9375 -5.671875 C 4.53125 -5.878906 4.09375 -5.984375 3.625 -5.984375 Z M 3.625 -5.984375 "/></g></g></g><g fill="#043d2d" fill-opacity="1"><g transform="translate(264.70417, 198.013412)"><g><path d="M 1.1875 -8.375 L 1.1875 0 L 0.96875 0 L 0.96875 -8.375 Z M 1.1875 -8.375 "/></g></g></g><g fill="#043d2d" fill-opacity="1"><g transform="translate(267.205433, 198.013412)"><g><path d="M 1.1875 -8.375 L 1.1875 0 L 0.96875 0 L 0.96875 -8.375 Z M 1.1875 -8.375 "/></g></g></g><g fill="#043d2d" fill-opacity="1"><g transform="translate(269.706696, 198.013412)"><g><path d="M 3.625 -0.125 C 4.3125 -0.125 4.882812 -0.296875 5.34375 -0.640625 C 5.8125 -0.992188 6.097656 -1.46875 6.203125 -2.0625 L 6.421875 -2.0625 C 6.316406 -1.425781 6.015625 -0.910156 5.515625 -0.515625 C 5.023438 -0.117188 4.394531 0.078125 3.625 0.078125 C 3.050781 0.078125 2.539062 -0.046875 2.09375 -0.296875 C 1.65625 -0.546875 1.304688 -0.90625 1.046875 -1.375 C 0.796875 -1.851562 0.671875 -2.410156 0.671875 -3.046875 C 0.671875 -3.691406 0.796875 -4.25 1.046875 -4.71875 C 1.304688 -5.195312 1.65625 -5.5625 2.09375 -5.8125 C 2.539062 -6.0625 3.050781 -6.1875 3.625 -6.1875 C 4.21875 -6.1875 4.722656 -6.0625 5.140625 -5.8125 C 5.566406 -5.5625 5.882812 -5.234375 6.09375 -4.828125 C 6.3125 -4.429688 6.421875 -4.007812 6.421875 -3.5625 C 6.421875 -3.289062 6.421875 -3.085938 6.421875 -2.953125 L 0.90625 -2.953125 C 0.914062 -2.328125 1.046875 -1.800781 1.296875 -1.375 C 1.546875 -0.957031 1.875 -0.644531 2.28125 -0.4375 C 2.6875 -0.226562 3.132812 -0.125 3.625 -0.125 Z M 3.625 -5.984375 C 3.132812 -5.984375 2.6875 -5.878906 2.28125 -5.671875 C 1.875 -5.460938 1.546875 -5.144531 1.296875 -4.71875 C 1.046875 -4.300781 0.914062 -3.78125 0.90625 -3.15625 L 6.21875 -3.15625 C 6.257812 -3.78125 6.160156 -4.300781 5.921875 -4.71875 C 5.679688 -5.144531 5.351562 -5.460938 4.9375 -5.671875 C 4.53125 -5.878906 4.09375 -5.984375 3.625 -5.984375 Z M 3.625 -5.984375 "/></g></g></g><g fill="#043d2d" fill-opacity="1"><g transform="translate(277.164897, 198.013412)"><g><path d="M 3.59375 -6.25 C 4.300781 -6.25 4.882812 -6.023438 5.34375 -5.578125 C 5.8125 -5.128906 6.046875 -4.457031 6.046875 -3.5625 L 6.046875 0 L 5.828125 0 L 5.828125 -3.59375 C 5.828125 -4.382812 5.625 -4.988281 5.21875 -5.40625 C 4.820312 -5.832031 4.28125 -6.046875 3.59375 -6.046875 C 2.863281 -6.046875 2.28125 -5.804688 1.84375 -5.328125 C 1.40625 -4.859375 1.1875 -4.164062 1.1875 -3.25 L 1.1875 0 L 0.96875 0 L 0.96875 -6.109375 L 1.1875 -6.109375 L 1.1875 -4.5 C 1.332031 -5.0625 1.617188 -5.492188 2.046875 -5.796875 C 2.472656 -6.097656 2.988281 -6.25 3.59375 -6.25 Z M 3.59375 -6.25 "/></g></g></g><g fill="#043d2d" fill-opacity="1"><g transform="translate(284.464659, 198.013412)"><g><path d="M 0.671875 -3.046875 C 0.671875 -3.691406 0.796875 -4.25 1.046875 -4.71875 C 1.304688 -5.195312 1.65625 -5.5625 2.09375 -5.8125 C 2.539062 -6.0625 3.050781 -6.1875 3.625 -6.1875 C 4.394531 -6.1875 5.023438 -5.988281 5.515625 -5.59375 C 6.015625 -5.195312 6.316406 -4.675781 6.421875 -4.03125 L 6.203125 -4.03125 C 6.097656 -4.632812 5.8125 -5.109375 5.34375 -5.453125 C 4.882812 -5.804688 4.3125 -5.984375 3.625 -5.984375 C 3.132812 -5.984375 2.679688 -5.875 2.265625 -5.65625 C 1.859375 -5.445312 1.53125 -5.125 1.28125 -4.6875 C 1.03125 -4.25 0.90625 -3.703125 0.90625 -3.046875 C 0.90625 -2.398438 1.03125 -1.859375 1.28125 -1.421875 C 1.53125 -0.984375 1.859375 -0.65625 2.265625 -0.4375 C 2.679688 -0.226562 3.132812 -0.125 3.625 -0.125 C 4.3125 -0.125 4.882812 -0.296875 5.34375 -0.640625 C 5.8125 -0.992188 6.097656 -1.46875 6.203125 -2.0625 L 6.421875 -2.0625 C 6.316406 -1.425781 6.015625 -0.910156 5.515625 -0.515625 C 5.023438 -0.117188 4.394531 0.078125 3.625 0.078125 C 3.050781 0.078125 2.539062 -0.046875 2.09375 -0.296875 C 1.65625 -0.546875 1.304688 -0.90625 1.046875 -1.375 C 0.796875 -1.851562 0.671875 -2.410156 0.671875 -3.046875 Z M 0.671875 -3.046875 "/></g></g></g><g fill="#043d2d" fill-opacity="1"><g transform="translate(291.92286, 198.013412)"><g><path d="M 3.625 -0.125 C 4.3125 -0.125 4.882812 -0.296875 5.34375 -0.640625 C 5.8125 -0.992188 6.097656 -1.46875 6.203125 -2.0625 L 6.421875 -2.0625 C 6.316406 -1.425781 6.015625 -0.910156 5.515625 -0.515625 C 5.023438 -0.117188 4.394531 0.078125 3.625 0.078125 C 3.050781 0.078125 2.539062 -0.046875 2.09375 -0.296875 C 1.65625 -0.546875 1.304688 -0.90625 1.046875 -1.375 C 0.796875 -1.851562 0.671875 -2.410156 0.671875 -3.046875 C 0.671875 -3.691406 0.796875 -4.25 1.046875 -4.71875 C 1.304688 -5.195312 1.65625 -5.5625 2.09375 -5.8125 C 2.539062 -6.0625 3.050781 -6.1875 3.625 -6.1875 C 4.21875 -6.1875 4.722656 -6.0625 5.140625 -5.8125 C 5.566406 -5.5625 5.882812 -5.234375 6.09375 -4.828125 C 6.3125 -4.429688 6.421875 -4.007812 6.421875 -3.5625 C 6.421875 -3.289062 6.421875 -3.085938 6.421875 -2.953125 L 0.90625 -2.953125 C 0.914062 -2.328125 1.046875 -1.800781 1.296875 -1.375 C 1.546875 -0.957031 1.875 -0.644531 2.28125 -0.4375 C 2.6875 -0.226562 3.132812 -0.125 3.625 -0.125 Z M 3.625 -5.984375 C 3.132812 -5.984375 2.6875 -5.878906 2.28125 -5.671875 C 1.875 -5.460938 1.546875 -5.144531 1.296875 -4.71875 C 1.046875 -4.300781 0.914062 -3.78125 0.90625 -3.15625 L 6.21875 -3.15625 C 6.257812 -3.78125 6.160156 -4.300781 5.921875 -4.71875 C 5.679688 -5.144531 5.351562 -5.460938 4.9375 -5.671875 C 4.53125 -5.878906 4.09375 -5.984375 3.625 -5.984375 Z M 3.625 -5.984375 "/></g></g></g></svg>