<svg version="1.2" xmlns="http://www.w3.org/2000/svg" viewBox="0 0 309 92" width="309" height="92">
	<title>4-svg</title>
	<defs>
		<clipPath clipPathUnits="userSpaceOnUse" id="cp1">
			<path d="m0.28-0.36h35.3v91.87h-35.3z"/>
		</clipPath>
		<clipPath clipPathUnits="userSpaceOnUse" id="cp2">
			<path d="m25.17 3.07h68.86v88.24h-68.86z"/>
		</clipPath>
	</defs>
	<style>
		.s0 { fill: #043d2d } 
	</style>
	<g id="Clip-Path" clip-path="url(#cp1)">
		<g id="Layer">
			<path id="Layer" class="s0" d="m19.4 81.5c2.3 2.9 3.8 6.3 4.7 9.5q0.5 0.2 1 0.5c-0.5-14.9-5.3-23.1-5.3-23.1 5.2 6.5 8 14.6 9.4 21.1-0.5-23-7.8-35.6-7.8-35.6 8.2 10.2 12.1 23.3 14 33 1.2-56.1-16.6-87.3-16.7-87.3 0 0 2 5.7 2.4 11.5-12.5 8.4-20.8 22.7-20.8 39 0 16.6 8.6 31.2 21.7 39.6-0.9-5.3-2.6-8.2-2.6-8.2z"/>
		</g>
	</g>
	<g id="Clip-Path" clip-path="url(#cp2)">
		<g id="Layer">
			<path id="Layer" class="s0" d="m47.2 3.1c-7.9 0-15.4 2-22 5.5 11.6 17.7 18.4 38 22.3 55 4-14.8 10.7-31.7 21.7-45.5 0 0-12.9 22.4-13.6 63.1 2.6-12.9 7.9-30 18.6-43.3 0 0-9.9 17.2-10.4 48.4 1.8-8.3 5.3-18.7 11.9-27 0 0-6.5 11.4-6.8 31.9 1.1-4.2 2.9-9.3 6.2-13.3 0 0-2.5 4.3-3.4 12.3 13.5-8.3 22.5-23.1 22.5-40.1 0-25.9-21-47-47-47z"/>
		</g>
	</g>
	<g id="Layer">
		<g id="Layer">
			<g id="Layer">
				<path id="Layer" class="s0" d="m113.7 38.6q0-1.9 0.8-3.3 0.8-1.5 2.2-2.3 1.5-0.9 3.3-0.9 2.3 0.1 3.9 1.2 1.6 1.2 2.1 3.3h-3.4q-0.3-0.8-1-1.2-0.7-0.5-1.6-0.5-1.4 0-2.3 1-0.9 1-0.9 2.7 0 1.6 0.9 2.6 0.9 1 2.3 1 0.9 0 1.6-0.4 0.7-0.4 1-1.2h3.4q-0.5 2.1-2.1 3.2-1.6 1.2-3.9 1.2-1.8 0-3.3-0.8-1.4-0.8-2.2-2.3-0.8-1.4-0.8-3.3z"/>
			</g>
		</g>
	</g>
	<g id="Layer">
		<g id="Layer">
			<g id="Layer">
				<path id="Layer" class="s0" d="m131 42.5h4v2.4h-7.1v-12.6h3.1z"/>
			</g>
		</g>
	</g>
	<g id="Layer">
		<g id="Layer">
			<g id="Layer">
				<path id="Layer" fill-rule="evenodd" class="s0" d="m144.3 42.7h-4.7l-0.7 2.2h-3.2l4.5-12.6h3.6l4.6 12.6h-3.3zm-0.8-2.4l-1.5-4.6-1.6 4.6z"/>
			</g>
		</g>
	</g>
	<g id="Layer">
		<g id="Layer">
			<g id="Layer">
				<path id="Layer" class="s0" d="m160.6 32.3l-4.4 8.4v4.2h-3.1v-4.2l-4.3-8.4h3.4l2.5 5.3 2.4-5.3z"/>
			</g>
		</g>
	</g>
	<g id="Layer">
		<g id="Layer">
			<g id="Layer">
			</g>
		</g>
	</g>
	<g id="Layer">
		<g id="Layer">
			<g id="Layer">
				<path id="Layer" fill-rule="evenodd" class="s0" d="m175.2 36.4q0 1-0.5 2-0.5 0.9-1.5 1.4-1.1 0.6-2.6 0.6h-1.9v4.5h-3.1v-12.6h5q1.5 0 2.5 0.5 1.1 0.5 1.6 1.5 0.5 0.9 0.5 2.1zm-4.8 1.5q0.9 0 1.3-0.4 0.4-0.4 0.4-1.1 0-0.8-0.4-1.2-0.4-0.4-1.3-0.4h-1.7v3.1z"/>
			</g>
		</g>
	</g>
	<g id="Layer">
		<g id="Layer">
			<g id="Layer">
				<path id="Layer" fill-rule="evenodd" class="s0" d="m182.8 45q-1.8 0-3.2-0.8-1.5-0.8-2.4-2.3-0.9-1.5-0.9-3.3 0-1.9 0.9-3.4 0.9-1.4 2.4-2.3 1.4-0.8 3.2-0.8 1.8 0 3.3 0.8 1.5 0.9 2.3 2.3 0.9 1.5 0.9 3.4 0 1.8-0.9 3.3-0.9 1.5-2.3 2.3-1.5 0.8-3.3 0.8zm0-2.8q1.5 0 2.4-1 0.9-1 0.9-2.6 0-1.7-0.9-2.7-0.9-1-2.4-1-1.5 0-2.4 1-0.9 1-0.9 2.7 0 1.6 0.9 2.6 0.9 1 2.4 1z"/>
			</g>
		</g>
	</g>
	<g id="Layer">
		<g id="Layer">
			<g id="Layer">
				<path id="Layer" class="s0" d="m200.1 32.3v2.5h-3.4v10.1h-3.1v-10.1h-3.3v-2.5z"/>
			</g>
		</g>
	</g>
	<g id="Layer">
		<g id="Layer">
			<g id="Layer">
			</g>
		</g>
	</g>
	<g id="Layer">
		<g id="Layer">
			<g id="Layer">
				<path id="Layer" fill-rule="evenodd" class="s0" d="m213.1 38.4q1.1 0.3 1.7 1.1 0.7 0.9 0.7 2 0 1.6-1.1 2.5-1.1 0.9-3.1 0.9h-5.9v-12.6h5.7q1.9 0 3 0.9 1.1 0.9 1.1 2.4 0 1.1-0.6 1.8-0.6 0.8-1.5 1zm-4.6-1h2q0.8 0 1.2-0.3 0.4-0.4 0.4-1 0-0.7-0.4-1-0.4-0.3-1.2-0.3h-2zm2.3 5q0.7 0 1.2-0.4 0.4-0.3 0.4-1 0-0.6-0.5-1-0.4-0.4-1.2-0.4h-2.2v2.8z"/>
			</g>
		</g>
	</g>
	<g id="Layer">
		<g id="Layer">
			<g id="Layer">
				<path id="Layer" fill-rule="evenodd" class="s0" d="m223.2 45q-1.7 0-3.2-0.8-1.5-0.8-2.4-2.3-0.9-1.5-0.9-3.3 0-1.9 0.9-3.4 0.9-1.4 2.4-2.3 1.5-0.8 3.2-0.8 1.8 0 3.3 0.8 1.5 0.9 2.3 2.3 0.9 1.5 0.9 3.4 0 1.8-0.9 3.3-0.8 1.5-2.3 2.3-1.5 0.8-3.3 0.8zm0-2.8q1.5 0 2.5-1 0.9-1 0.9-2.6 0-1.7-0.9-2.7-1-1-2.5-1-1.5 0-2.4 1-0.9 1-0.9 2.7 0 1.6 0.9 2.6 0.9 1 2.4 1z"/>
			</g>
		</g>
	</g>
	<g id="Layer">
		<g id="Layer">
			<g id="Layer">
				<path id="Layer" class="s0" d="m240.5 32.3v2.5h-3.4v10.1h-3v-10.1h-3.4v-2.5z"/>
			</g>
		</g>
	</g>
	<g id="Layer">
		<g id="Layer">
			<g id="Layer">
				<path id="Layer" fill-rule="evenodd" class="s0" d="m249.9 42.7h-4.7l-0.8 2.2h-3.2l4.6-12.6h3.5l4.6 12.6h-3.3zm-0.7-2.4l-1.6-4.6-1.5 4.6z"/>
			</g>
		</g>
	</g>
	<g id="Layer">
		<g id="Layer">
			<g id="Layer">
				<path id="Layer" class="s0" d="m266.6 44.9h-3.1l-5.1-7.8v7.8h-3.1v-12.6h3.1l5.1 7.8v-7.8h3.1z"/>
			</g>
		</g>
	</g>
	<g id="Layer">
		<g id="Layer">
			<g id="Layer">
				<path id="Layer" class="s0" d="m271.9 32.3v12.6h-3.1v-12.6z"/>
			</g>
		</g>
	</g>
	<g id="Layer">
		<g id="Layer">
			<g id="Layer">
				<path id="Layer" class="s0" d="m273.6 38.6q0-1.9 0.8-3.3 0.8-1.5 2.3-2.3 1.4-0.9 3.2-0.9 2.3 0.1 3.9 1.2 1.6 1.2 2.1 3.3h-3.4q-0.3-0.8-1-1.2-0.7-0.5-1.6-0.5-1.4 0-2.3 1-0.9 1-0.9 2.7 0 1.6 0.9 2.6 0.9 1 2.3 1 0.9 0 1.6-0.4 0.7-0.4 1-1.2h3.4q-0.5 2.1-2.1 3.2-1.6 1.2-3.9 1.2-1.8 0-3.2-0.8-1.5-0.8-2.3-2.3-0.8-1.4-0.8-3.3z"/>
			</g>
		</g>
	</g>
	<g id="Layer">
		<g id="Layer">
			<g id="Layer">
				<path id="Layer" fill-rule="evenodd" class="s0" d="m295.7 42.7h-4.7l-0.8 2.2h-3.2l4.6-12.6h3.5l4.6 12.6h-3.3zm-0.7-2.4l-1.6-4.6-1.6 4.6z"/>
			</g>
		</g>
	</g>
	<g id="Layer">
		<g id="Layer">
			<g id="Layer">
				<path id="Layer" class="s0" d="m304.1 42.5h4.1v2.4h-7.1v-12.6h3z"/>
			</g>
		</g>
	</g>
	<g id="Layer">
		<g id="Layer">
			<g id="Layer">
				<path id="Layer" fill-rule="evenodd" class="s0" d="m156.9 60l-2.2-3.5h-2v3.5h-0.2v-8h2q1.3 0 2 0.7 0.6 0.6 0.6 1.6 0 1-0.5 1.5-0.6 0.6-1.6 0.7l2.2 3.5zm-2.4-3.7q1.2 0 1.8-0.5 0.6-0.6 0.6-1.5 0-2-2.4-2h-1.8v4z"/>
			</g>
		</g>
	</g>
	<g id="Layer">
		<g id="Layer">
			<g id="Layer">
				<path id="Layer" fill-rule="evenodd" class="s0" d="m161.6 60.1q-0.8 0-1.5-0.4-0.7-0.4-1.1-1.1-0.4-0.7-0.4-1.6 0-1 0.4-1.7 0.4-0.7 1.1-1.1 0.7-0.4 1.5-0.4 0.9 0 1.6 0.4 0.6 0.4 1 1.1 0.4 0.7 0.4 1.7 0 0.9-0.4 1.6-0.4 0.7-1 1.1-0.7 0.4-1.6 0.4zm0-0.2q0.8 0 1.4-0.3 0.6-0.4 1-1 0.4-0.7 0.4-1.6 0-1-0.4-1.7-0.4-0.6-1-0.9-0.6-0.4-1.4-0.4-0.7 0-1.3 0.4-0.7 0.3-1.1 0.9-0.3 0.7-0.3 1.7 0 0.9 0.3 1.6 0.4 0.6 1.1 1 0.6 0.3 1.3 0.3z"/>
			</g>
		</g>
	</g>
	<g id="Layer">
		<g id="Layer">
			<g id="Layer">
				<path id="Layer" fill-rule="evenodd" class="s0" d="m169.3 60.1q-0.9 0-1.5-0.4-0.7-0.4-1.1-1.1-0.4-0.7-0.4-1.6 0-1 0.4-1.7 0.4-0.7 1.1-1.1 0.6-0.4 1.5-0.4 0.9 0 1.5 0.4 0.7 0.4 1.1 1.1 0.4 0.7 0.4 1.7 0 0.9-0.4 1.6-0.4 0.7-1.1 1.1-0.6 0.4-1.5 0.4zm0-0.2q0.7 0 1.4-0.3 0.6-0.4 1-1 0.4-0.7 0.4-1.6 0-1-0.4-1.7-0.4-0.6-1-0.9-0.7-0.4-1.4-0.4-0.7 0-1.4 0.4-0.6 0.3-1 0.9-0.4 0.7-0.4 1.7 0 0.9 0.4 1.6 0.4 0.6 1 1 0.7 0.3 1.4 0.3z"/>
			</g>
		</g>
	</g>
	<g id="Layer">
		<g id="Layer">
			<g id="Layer">
				<path id="Layer" class="s0" d="m174.8 54.1v4.3q0 0.6 0.1 0.9 0.1 0.2 0.4 0.4 0.2 0.1 0.7 0.1h0.7v0.2h-0.7q-0.8 0-1.1-0.3-0.4-0.4-0.4-1.3v-4.3h-1v-0.2h1v-1.6h0.3v1.6h1.9v0.2z"/>
			</g>
		</g>
	</g>
	<g id="Layer">
		<g id="Layer">
			<g id="Layer">
				<path id="Layer" fill-rule="evenodd" class="s0" d="m181.1 59.9q1 0 1.7-0.5 0.7-0.6 0.9-1.4h0.2q-0.1 0.9-0.9 1.5-0.7 0.6-1.9 0.6-0.9 0-1.5-0.4-0.7-0.4-1.1-1.1-0.3-0.7-0.3-1.6 0-1 0.3-1.7 0.4-0.7 1.1-1.1 0.6-0.4 1.5-0.4 0.9 0 1.5 0.4 0.7 0.4 1 1 0.3 0.6 0.3 1.3 0 0.4 0 0.6h-5.5q0 0.9 0.4 1.5 0.4 0.7 1 1 0.6 0.3 1.3 0.3zm0-5.9q-0.7 0-1.3 0.3-0.6 0.4-1 1-0.4 0.6-0.4 1.6h5.3q0.1-1-0.3-1.6-0.4-0.6-1-1-0.6-0.3-1.3-0.3z"/>
			</g>
		</g>
	</g>
	<g id="Layer">
		<g id="Layer">
			<g id="Layer">
				<path id="Layer" fill-rule="evenodd" class="s0" d="m185.6 57q0-1 0.4-1.7 0.4-0.7 1-1.1 0.7-0.4 1.6-0.4 1 0 1.8 0.6 0.7 0.5 1 1.4v-4.2h0.2v8.4h-0.2v-1.9q-0.3 0.9-1 1.4-0.8 0.6-1.8 0.6-0.9 0-1.6-0.4-0.6-0.4-1-1.1-0.4-0.7-0.4-1.6zm5.8 0q0-0.9-0.4-1.6-0.4-0.6-1-1-0.6-0.4-1.4-0.4-0.8 0-1.5 0.4-0.6 0.3-0.9 1-0.3 0.7-0.3 1.6 0 0.9 0.3 1.5 0.3 0.7 0.9 1 0.7 0.4 1.5 0.4 0.8 0 1.4-0.4 0.6-0.3 1-1 0.4-0.7 0.4-1.5z"/>
			</g>
		</g>
	</g>
	<g id="Layer">
		<g id="Layer">
			<g id="Layer">
			</g>
		</g>
	</g>
	<g id="Layer">
		<g id="Layer">
			<g id="Layer">
				<path id="Layer" class="s0" d="m197.7 52v8h-0.2v-8z"/>
			</g>
		</g>
	</g>
	<g id="Layer">
		<g id="Layer">
			<g id="Layer">
				<path id="Layer" class="s0" d="m202.6 53.8q1.1 0 1.8 0.6 0.7 0.7 0.7 2.1v3.5h-0.2v-3.6q0-1.2-0.7-1.8-0.6-0.6-1.6-0.6-1.1 0-1.7 0.7-0.7 0.7-0.7 2.1v3.2h-0.2v-6.1h0.2v1.6q0.2-0.8 0.9-1.3 0.6-0.4 1.5-0.4z"/>
			</g>
		</g>
	</g>
	<g id="Layer">
		<g id="Layer">
			<g id="Layer">
			</g>
		</g>
	</g>
	<g id="Layer">
		<g id="Layer">
			<g id="Layer">
				<path id="Layer" class="s0" d="m211.1 52.2v3.7h3.4v0.2h-3.4v3.7h3.7v0.2h-3.9v-8h3.9v0.2z"/>
			</g>
		</g>
	</g>
	<g id="Layer">
		<g id="Layer">
			<g id="Layer">
				<path id="Layer" class="s0" d="m219.9 60l-1.8-2.9-1.9 2.9h-0.2l1.9-3.1-1.9-3h0.3l1.8 2.8 1.8-2.8h0.3l-2 3.1 2 3z"/>
			</g>
		</g>
	</g>
	<g id="Layer">
		<g id="Layer">
			<g id="Layer">
				<path id="Layer" class="s0" d="m221.5 57q0-1 0.3-1.7 0.4-0.7 1.1-1.1 0.7-0.4 1.5-0.4 1.2 0 1.9 0.6 0.8 0.6 0.9 1.6h-0.2q-0.2-0.9-0.9-1.4-0.7-0.6-1.7-0.6-0.7 0-1.3 0.4-0.7 0.3-1 0.9-0.4 0.7-0.4 1.7 0 0.9 0.4 1.6 0.3 0.6 1 1 0.6 0.3 1.3 0.3 1 0 1.7-0.5 0.7-0.6 0.9-1.4h0.2q-0.1 0.9-0.9 1.5-0.7 0.6-1.9 0.6-0.8 0-1.5-0.4-0.7-0.4-1.1-1.1-0.3-0.7-0.3-1.6z"/>
			</g>
		</g>
	</g>
	<g id="Layer">
		<g id="Layer">
			<g id="Layer">
				<path id="Layer" fill-rule="evenodd" class="s0" d="m231.9 59.9q1 0 1.7-0.5 0.7-0.6 0.8-1.4h0.3q-0.2 0.9-0.9 1.5-0.8 0.6-1.9 0.6-0.9 0-1.6-0.4-0.6-0.4-1-1.1-0.4-0.7-0.4-1.6 0-1 0.4-1.7 0.4-0.7 1-1.1 0.7-0.4 1.6-0.4 0.9 0 1.5 0.4 0.6 0.4 0.9 1 0.4 0.6 0.4 1.3 0 0.4 0 0.6h-5.5q0 0.9 0.3 1.5 0.4 0.7 1 1 0.6 0.3 1.4 0.3zm0-5.9q-0.8 0-1.4 0.3-0.6 0.4-1 1-0.3 0.6-0.3 1.6h5.3q0-1-0.3-1.6-0.4-0.6-1-1-0.6-0.3-1.3-0.3z"/>
			</g>
		</g>
	</g>
	<g id="Layer">
		<g id="Layer">
			<g id="Layer">
				<path id="Layer" class="s0" d="m236.9 51.6v8.4h-0.2v-8.4z"/>
			</g>
		</g>
	</g>
	<g id="Layer">
		<g id="Layer">
			<g id="Layer">
				<path id="Layer" class="s0" d="m239.4 51.6v8.4h-0.2v-8.4z"/>
			</g>
		</g>
	</g>
	<g id="Layer">
		<g id="Layer">
			<g id="Layer">
				<path id="Layer" fill-rule="evenodd" class="s0" d="m244.3 59.9q1.1 0 1.8-0.5 0.7-0.6 0.8-1.4h0.2q-0.1 0.9-0.9 1.5-0.7 0.6-1.9 0.6-0.8 0-1.5-0.4-0.7-0.4-1-1.1-0.4-0.7-0.4-1.6 0-1 0.4-1.7 0.3-0.7 1-1.1 0.7-0.4 1.5-0.4 0.9 0 1.5 0.4 0.7 0.4 1 1 0.3 0.6 0.3 1.3 0 0.4 0 0.6h-5.5q0 0.9 0.4 1.5 0.4 0.7 1 1 0.6 0.3 1.3 0.3zm0-5.9q-0.7 0-1.3 0.3-0.6 0.4-1 1-0.4 0.6-0.4 1.6h5.3q0.1-1-0.3-1.6-0.3-0.6-1-1-0.6-0.3-1.3-0.3z"/>
			</g>
		</g>
	</g>
	<g id="Layer">
		<g id="Layer">
			<g id="Layer">
				<path id="Layer" class="s0" d="m251.8 53.8q1 0 1.7 0.6 0.7 0.7 0.7 2.1v3.5h-0.2v-3.6q0-1.2-0.6-1.8-0.6-0.6-1.6-0.6-1.1 0-1.8 0.7-0.6 0.7-0.6 2.1v3.2h-0.3v-6.1h0.3v1.6q0.2-0.8 0.8-1.3 0.7-0.4 1.6-0.4z"/>
			</g>
		</g>
	</g>
	<g id="Layer">
		<g id="Layer">
			<g id="Layer">
				<path id="Layer" class="s0" d="m256.1 57q0-1 0.4-1.7 0.4-0.7 1.1-1.1 0.6-0.4 1.5-0.4 1.1 0 1.9 0.6 0.7 0.6 0.9 1.6h-0.2q-0.2-0.9-0.9-1.4-0.7-0.6-1.7-0.6-0.7 0-1.4 0.4-0.6 0.3-1 0.9-0.3 0.7-0.3 1.7 0 0.9 0.3 1.6 0.4 0.6 1 1 0.7 0.3 1.4 0.3 1 0 1.7-0.5 0.7-0.6 0.9-1.4h0.2q-0.2 0.9-0.9 1.5-0.8 0.6-1.9 0.6-0.9 0-1.5-0.4-0.7-0.4-1.1-1.1-0.4-0.7-0.4-1.6z"/>
			</g>
		</g>
	</g>
	<g id="Layer">
		<g id="Layer">
			<g id="Layer">
				<path id="Layer" fill-rule="evenodd" class="s0" d="m266.5 59.9q1.1 0 1.8-0.5 0.7-0.6 0.8-1.4h0.2q-0.1 0.9-0.9 1.5-0.7 0.6-1.9 0.6-0.8 0-1.5-0.4-0.6-0.4-1-1.1-0.4-0.7-0.4-1.6 0-1 0.4-1.7 0.4-0.7 1-1.1 0.7-0.4 1.5-0.4 0.9 0 1.6 0.4 0.6 0.4 0.9 1 0.3 0.6 0.3 1.3 0 0.4 0 0.6h-5.5q0 0.9 0.4 1.5 0.4 0.7 1 1 0.6 0.3 1.3 0.3zm0-5.9q-0.7 0-1.3 0.3-0.6 0.4-1 1-0.4 0.6-0.4 1.6h5.3q0.1-1-0.3-1.6-0.3-0.6-0.9-1-0.6-0.3-1.4-0.3z"/>
			</g>
		</g>
	</g>
</svg>